<?xml version="1.0" encoding="utf-8" ?>
<svg baseProfile="full" height="720" version="1.1" viewBox="0 0 1280 720" width="1280" xmlns="http://www.w3.org/2000/svg" xmlns:ev="http://www.w3.org/2001/xml-events" xmlns:xlink="http://www.w3.org/1999/xlink"><defs /><rect fill="#F7F4EE" height="720" width="1280" x="0" y="0" /><text fill="#D66A4A" font-family="Noto Sans CJK SC, Noto Sans, Arial, sans-serif" font-size="18" font-weight="750" opacity="1" text-anchor="start" x="64" y="68">FLOW RUNTIME</text><text fill="#19232D" font-family="Noto Sans CJK SC, Noto Sans, Arial, sans-serif" font-size="42" font-weight="780" opacity="1" text-anchor="start" x="64" y="112">How one Flow runs</text><text fill="#66707A" font-family="Noto Sans CJK SC, Noto Sans, Arial, sans-serif" font-size="21" font-weight="400" opacity="1" text-anchor="start" x="64" y="148">Current world → compiled execution → new world</text><rect fill="#F3E9D3" height="82" opacity="1" rx="18" ry="18" stroke="#C89B45" stroke-width="2" width="140" x="25" y="282" /><text fill="#C89B45" font-family="Noto Sans CJK SC, Noto Sans, Arial, sans-serif" font-size="15" font-weight="720" opacity="1" text-anchor="middle" x="95" y="330">EVENT / INTENT</text><line opacity="1" stroke="#CAC5BB" stroke-width="2" x1="167" x2="193" y1="323" y2="323" /><polygon fill="#CAC5BB" points="193,323 183.99552897647322,327.3496553411123 183.99552897647322,318.6503446588877" /><rect fill="#F4E2DB" height="82" opacity="1" rx="18" ry="18" stroke="#D66A4A" stroke-width="2" width="140" x="195" y="282" /><text fill="#D66A4A" font-family="Noto Sans CJK SC, Noto Sans, Arial, sans-serif" font-size="15" font-weight="720" opacity="1" text-anchor="middle" x="265" y="330">PERSISTENT WORK</text><line opacity="1" stroke="#CAC5BB" stroke-width="2" x1="337" x2="363" y1="323" y2="323" /><polygon fill="#CAC5BB" points="363,323 353.9955289764732,327.3496553411123 353.9955289764732,318.6503446588877" /><rect fill="#E7ECFA" height="82" opacity="1" rx="18" ry="18" stroke="#536FCE" stroke-width="2" width="140" x="365" y="282" /><text fill="#536FCE" font-family="Noto Sans CJK SC, Noto Sans, Arial, sans-serif" font-size="15" font-weight="720" opacity="1" text-anchor="middle" x="435" y="330">PROJECT WORLD</text><line opacity="1" stroke="#CAC5BB" stroke-width="2" x1="507" x2="533" y1="323" y2="323" /><polygon fill="#CAC5BB" points="533,323 523.9955289764732,327.3496553411123 523.9955289764732,318.6503446588877" /><rect fill="#E4F0EC" height="82" opacity="1" rx="18" ry="18" stroke="#4F8A78" stroke-width="2" width="140" x="535" y="282" /><text fill="#4F8A78" font-family="Noto Sans CJK SC, Noto Sans, Arial, sans-serif" font-size="15" font-weight="720" opacity="1" text-anchor="middle" x="605" y="330">COMPILE EXECUTION</text><line opacity="1" stroke="#CAC5BB" stroke-width="2" x1="677" x2="703" y1="323" y2="323" /><polygon fill="#CAC5BB" points="703,323 693.9955289764732,327.3496553411123 693.9955289764732,318.6503446588877" /><rect fill="#EAE4D9" height="82" opacity="1" rx="18" ry="18" stroke="#19232D" stroke-width="2" width="140" x="705" y="282" /><text fill="#19232D" font-family="Noto Sans CJK SC, Noto Sans, Arial, sans-serif" font-size="15" font-weight="720" opacity="1" text-anchor="middle" x="775" y="330">ACT</text><line opacity="1" stroke="#CAC5BB" stroke-width="2" x1="847" x2="873" y1="323" y2="323" /><polygon fill="#CAC5BB" points="873,323 863.9955289764732,327.3496553411123 863.9955289764732,318.6503446588877" /><rect fill="#F4E3E1" height="82" opacity="1" rx="18" ry="18" stroke="#B85C57" stroke-width="2" width="140" x="875" y="282" /><text fill="#B85C57" font-family="Noto Sans CJK SC, Noto Sans, Arial, sans-serif" font-size="15" font-weight="720" opacity="1" text-anchor="middle" x="945" y="330">VERIFY / COMMIT</text><line opacity="1" stroke="#CAC5BB" stroke-width="2" x1="1017" x2="1043" y1="323" y2="323" /><polygon fill="#CAC5BB" points="1043,323 1033.9955289764732,327.3496553411123 1033.9955289764732,318.6503446588877" /><rect fill="#F4E2DB" height="82" opacity="1" rx="18" ry="18" stroke="#D66A4A" stroke-width="2" width="140" x="1045" y="282" /><text fill="#D66A4A" font-family="Noto Sans CJK SC, Noto Sans, Arial, sans-serif" font-size="15" font-weight="720" opacity="1" text-anchor="middle" x="1115" y="330">NEW STATE</text><path d="M 1115 380 C 1115 555, 265 555, 265 390" fill="none" stroke="#D66A4A" stroke-width="3" /><polygon fill="#D66A4A" points="265,390 256,405 274,404" /><rect fill="#EAE4D9" height="34" opacity="1" rx="17" ry="17" stroke="none" stroke-width="0" width="540" x="370" y="487" /><text fill="#19232D" font-family="Noto Sans CJK SC, Noto Sans, Arial, sans-serif" font-size="15" font-weight="600" opacity="1" text-anchor="middle" x="640.0" y="510">Continue · Wait · Branch · Merge · Reflow · Close</text><rect fill="#FFFFFF" height="34" opacity="1" rx="17" ry="17" stroke="none" stroke-width="0" width="180" x="225" y="620" /><text fill="#536FCE" font-family="Noto Sans CJK SC, Noto Sans, Arial, sans-serif" font-size="15" font-weight="600" opacity="1" text-anchor="middle" x="315.0" y="643">agents: none</text><rect fill="#FFFFFF" height="34" opacity="1" rx="17" ry="17" stroke="none" stroke-width="0" width="180" x="440" y="620" /><text fill="#4F8A78" font-family="Noto Sans CJK SC, Noto Sans, Arial, sans-serif" font-size="15" font-weight="600" opacity="1" text-anchor="middle" x="530.0" y="643">flow: alive</text><rect fill="#FFFFFF" height="34" opacity="1" rx="17" ry="17" stroke="none" stroke-width="0" width="180" x="655" y="620" /><text fill="#C89B45" font-family="Noto Sans CJK SC, Noto Sans, Arial, sans-serif" font-size="15" font-weight="600" opacity="1" text-anchor="middle" x="745.0" y="643">graph: v7</text><rect fill="#FFFFFF" height="34" opacity="1" rx="17" ry="17" stroke="none" stroke-width="0" width="180" x="870" y="620" /><text fill="#B85C57" font-family="Noto Sans CJK SC, Noto Sans, Arial, sans-serif" font-size="15" font-weight="600" opacity="1" text-anchor="middle" x="960.0" y="643">activation: unknown</text></svg>