<?xml version="1.0" encoding="utf-8" ?>
<svg baseProfile="full" height="720" version="1.1" viewBox="0 0 1280 720" width="1280" xmlns="http://www.w3.org/2000/svg" xmlns:ev="http://www.w3.org/2001/xml-events" xmlns:xlink="http://www.w3.org/1999/xlink"><defs /><rect fill="#F7F4EE" height="720" width="1280" x="0" y="0" /><text fill="#D66A4A" font-family="Noto Sans CJK SC, Noto Sans, Arial, sans-serif" font-size="18" font-weight="750" opacity="1" text-anchor="start" x="64" y="68">HUMAN GOVERNANCE</text><text fill="#19232D" font-family="Noto Sans CJK SC, Noto Sans, Arial, sans-serif" font-size="39" font-weight="780" opacity="1" text-anchor="start" x="64" y="115">人的控制在基础设施里，而不是困在每个会话里。</text><rect fill="#F3E9D3" height="135" opacity="1" rx="24" ry="24" stroke="#C89B45" stroke-width="2" width="1100" x="90" y="175" /><text fill="#C89B45" font-family="Noto Sans CJK SC, Noto Sans, Arial, sans-serif" font-size="18" font-weight="800" opacity="1" text-anchor="middle" x="640" y="208">人类宪法层</text><rect fill="#FFFFFF" height="34" opacity="1" rx="17" ry="17" stroke="none" stroke-width="0" width="205" x="145" y="240" /><text fill="#19232D" font-family="Noto Sans CJK SC, Noto Sans, Arial, sans-serif" font-size="15" font-weight="600" opacity="1" text-anchor="middle" x="247.5" y="263">目标</text><rect fill="#FFFFFF" height="34" opacity="1" rx="17" ry="17" stroke="none" stroke-width="0" width="205" x="420" y="240" /><text fill="#19232D" font-family="Noto Sans CJK SC, Noto Sans, Arial, sans-serif" font-size="15" font-weight="600" opacity="1" text-anchor="middle" x="522.5" y="263">本体</text><rect fill="#FFFFFF" height="34" opacity="1" rx="17" ry="17" stroke="none" stroke-width="0" width="205" x="695" y="240" /><text fill="#19232D" font-family="Noto Sans CJK SC, Noto Sans, Arial, sans-serif" font-size="15" font-weight="600" opacity="1" text-anchor="middle" x="797.5" y="263">判断</text><rect fill="#FFFFFF" height="34" opacity="1" rx="17" ry="17" stroke="none" stroke-width="0" width="205" x="970" y="240" /><text fill="#19232D" font-family="Noto Sans CJK SC, Noto Sans, Arial, sans-serif" font-size="15" font-weight="600" opacity="1" text-anchor="middle" x="1072.5" y="263">义务</text><rect fill="#FFFFFF" height="34" opacity="1" rx="17" ry="17" stroke="none" stroke-width="0" width="205" x="145" y="285" /><text fill="#19232D" font-family="Noto Sans CJK SC, Noto Sans, Arial, sans-serif" font-size="15" font-weight="600" opacity="1" text-anchor="middle" x="247.5" y="308">权限</text><rect fill="#FFFFFF" height="34" opacity="1" rx="17" ry="17" stroke="none" stroke-width="0" width="205" x="420" y="285" /><text fill="#19232D" font-family="Noto Sans CJK SC, Noto Sans, Arial, sans-serif" font-size="15" font-weight="600" opacity="1" text-anchor="middle" x="522.5" y="308">红线</text><rect fill="#FFFFFF" height="34" opacity="1" rx="17" ry="17" stroke="none" stroke-width="0" width="205" x="695" y="285" /><text fill="#19232D" font-family="Noto Sans CJK SC, Noto Sans, Arial, sans-serif" font-size="15" font-weight="600" opacity="1" text-anchor="middle" x="797.5" y="308">接受</text><rect fill="#FFFFFF" height="34" opacity="1" rx="17" ry="17" stroke="none" stroke-width="0" width="205" x="970" y="285" /><text fill="#19232D" font-family="Noto Sans CJK SC, Noto Sans, Arial, sans-serif" font-size="15" font-weight="600" opacity="1" text-anchor="middle" x="1072.5" y="308">晋升规则</text><line opacity="1" stroke="#C89B45" stroke-width="3" x1="640" x2="640" y1="310" y2="365" /><polygon fill="#C89B45" points="640,365 635.6503446588877,355.9955289764732 644.3496553411123,355.9955289764732" /><rect fill="#E4F0EC" height="128" opacity="1" rx="28" ry="28" stroke="#4F8A78" stroke-width="2" width="790" x="245" y="365" /><text fill="#4F8A78" font-family="Noto Sans CJK SC, Noto Sans, Arial, sans-serif" font-size="23" font-weight="800" opacity="1" text-anchor="middle" x="640" y="410">自治运行区</text><text fill="#66707A" font-family="Noto Sans CJK SC, Noto Sans, Arial, sans-serif" font-size="17" font-weight="400" opacity="1" text-anchor="middle" x="640" y="450">Work 在边界内编译上下文、能力、Graph 与执行。</text><line opacity="1" stroke="#4F8A78" stroke-width="3" x1="640" x2="640" y1="493" y2="535" /><polygon fill="#4F8A78" points="640,535 635.6503446588877,525.9955289764732 644.3496553411123,525.9955289764732" /><rect fill="#E7ECFA" height="58" opacity="1" rx="18" ry="18" stroke="#536FCE" stroke-width="2" width="420" x="430" y="535" /><text fill="#536FCE" font-family="Noto Sans CJK SC, Noto Sans, Arial, sans-serif" font-size="18" font-weight="750" opacity="1" text-anchor="middle" x="640" y="571">准备好的 Owner 决策</text><line opacity="1" stroke="#536FCE" stroke-width="3" x1="640" x2="640" y1="593" y2="625" /><polygon fill="#536FCE" points="640,625 635.6503446588877,615.9955289764732 644.3496553411123,615.9955289764732" /><rect fill="#F4E3E1" height="45" opacity="1" rx="15" ry="15" stroke="#B85C57" stroke-width="2" width="610" x="335" y="625" /><text fill="#B85C57" font-family="Noto Sans CJK SC, Noto Sans, Arial, sans-serif" font-size="17" font-weight="750" opacity="1" text-anchor="middle" x="640" y="654">不可逆现实边界</text><text fill="#66707A" font-family="Noto Sans CJK SC, Noto Sans, Arial, sans-serif" font-size="18" font-weight="650" opacity="1" text-anchor="middle" x="640" y="705">人可以退出会话，但不能退出系统的宪法。</text></svg>